<?xml version="1.0" encoding="utf-8"?>
<!-- Generator: Adobe Illustrator 21.0.0, SVG Export Plug-In . SVG Version: 6.00 Build 0)  -->
<svg version="1.1" id="Слой_1" xmlns="http://www.w3.org/2000/svg" xmlns:xlink="http://www.w3.org/1999/xlink" x="0px" y="0px"
	 viewBox="0 0 412.9 363.2" style="enable-background:new 0 0 412.9 363.2;" xml:space="preserve">
<g>
	<g>
		<path d="M0,363.2c0-9.3,0-17.8,0-27.4c9.5,0,18.5,0,28.9,0c0-5.1,0-9.1,0-13.1c0-69.3,0-138.7,0-208c0-27,10.4-37.3,37.3-37.4
			c18.2,0,36.4-0.1,54.6,0c20,0.2,28.8,9.1,28.8,28.6c0,66.9,0,133.9,0,200.8c0,2.7-0.3,5.6,0.2,8.2c0.3,1.6,2.1,2.8,3.2,4.2
			c1.2-1.3,3.1-2.5,3.4-4c0.6-2.6,0.2-5.5,0.2-8.2c0-47.7,0-95.4,0-143.1c0-3.7,0-7.4,0-11.7c25.7,0,50.4-1,74.9,0.4
			c15.9,0.9,25.2,14.3,25.3,32.2c0.1,46,0,92,0,138c0,3.7,0,7.5,0,12c6.8,0,13,0,20.4,0c0-111.3,0-222.3,0-334.7
			c4.1,2.2,6.8,3.5,9.3,5.1c31.2,18.7,62.3,37.5,93.6,56c6,3.6,8.3,7.5,8.3,14.6c-0.3,82-0.2,164.1-0.2,246.1c0,4.1,0,8.1,0,13.3
			c8.4,0,16.1,0,24.5,0c0,9.8,0,18.5,0,28C275.7,363.2,138.2,363.2,0,363.2z M372.7,283.7c0-11.2,0-21.3,0-31.8
			c-11.2,0-21.8,0-32.3,0c0,11,0,21.1,0,31.8C351.3,283.7,361.7,283.7,372.7,283.7z M292.4,106.4c11.4,0,21.8,0,32.2,0
			c0-11,0-21.1,0-31.8c-11,0-21.4,0-32.2,0C292.4,85.4,292.4,95.5,292.4,106.4z M324.6,165.5c0-10.9,0-21.3,0-32.1
			c-10.9,0-21.3,0-32.1,0c0,10.9,0,21.3,0,32.1C303.4,165.5,313.8,165.5,324.6,165.5z M372.9,133.5c-11.3,0-21.7,0-32.3,0
			c0,11.1,0,21.5,0,31.6c11.2,0,21.6,0,32.3,0C372.9,154.3,372.9,144.4,372.9,133.5z M292.4,225.2c11.4,0,21.5,0,32.1,0
			c0-11,0-21.4,0-31.9c-11.1,0-21.5,0-32.1,0C292.4,204.2,292.4,214.3,292.4,225.2z M372.5,225.2c0-11,0-21.4,0-31.8
			c-11.1,0-21.5,0-32.1,0c0,10.9,0,21.1,0,31.8C351.1,225.2,361.2,225.2,372.5,225.2z M324.5,283.7c0-11,0-21.4,0-32
			c-11.1,0-21.5,0-31.7,0c0,11.2,0,21.6,0,32C303.8,283.7,314,283.7,324.5,283.7z M372.6,106.7c0-11.4,0-21.5,0-32.1
			c-11,0-21.4,0-31.9,0c0,11.1,0,21.4,0,32.1C351.6,106.7,361.8,106.7,372.6,106.7z M49.7,270.7c0,10.3,0,19.3,0,28.4
			c9.8,0,18.8,0,28.1,0c0-9.8,0-18.8,0-28.4C68.2,270.7,59.1,270.7,49.7,270.7z M99.1,270.8c0,9.9,0,19.1,0,28.3c9.9,0,18.9,0,28,0
			c0-9.8,0-18.8,0-28.3C117.4,270.8,108.3,270.8,99.1,270.8z M49.3,138.9c10.2,0,19.4,0,28.2,0c0-9.9,0-18.9,0-27.7
			c-9.9,0-18.9,0-28.2,0C49.3,120.7,49.3,129.4,49.3,138.9z M98.8,110.8c0,10,0,19.1,0,28.2c9.9,0,19.1,0,28.1,0
			c0-9.9,0-18.9,0-28.2C117.3,110.8,108.6,110.8,98.8,110.8z M77.8,164.5c-9.1,0-18.4,0-28.3,0c0,9.3,0,18.3,0,27.9
			c9.6,0,18.7,0,28.3,0C77.8,183.1,77.8,174.3,77.8,164.5z M127.1,192.4c0-9.7,0-18.7,0-28.3c-9.7,0-18.7,0-28.3,0
			c0,9.7,0,18.7,0,28.3C108.5,192.4,117.5,192.4,127.1,192.4z M78,218.1c-10.2,0-19.2,0-28.3,0c0,9.8,0,18.9,0,27.9
			c9.8,0,18.9,0,28.3,0C78,236.4,78,227.6,78,218.1z M98.7,246.1c9.8,0,18.9,0,28.3,0c0-9.7,0-18.7,0-28.2c-9.7,0-18.7,0-28.3,0
			C98.7,227.4,98.7,236.2,98.7,246.1z"/>
	</g>
</g>
</svg>
