<?xml version="1.0" encoding="utf-8"?>
<!-- Generator: Adobe Illustrator 21.0.0, SVG Export Plug-In . SVG Version: 6.00 Build 0)  -->
<svg version="1.1" id="Слой_1" xmlns="http://www.w3.org/2000/svg" xmlns:xlink="http://www.w3.org/1999/xlink" x="0px" y="0px"
	 viewBox="0 0 395.5 630" style="enable-background:new 0 0 395.5 630;" xml:space="preserve">
<g>
	<path d="M213.7,627.3c-0.1-2.3-0.3-4.7-0.3-7c0-154.1,0-308.3-0.1-462.4c0-4.2,1-6.8,4.7-9.4c38.7-27.7,77.1-55.8,115.7-83.7
		c9.4-6.8,18.6-14,28.3-20.5c4.8-3.2,4.4-7.3,4-11.7c-0.1-0.8-1.6-1.9-2.6-2.1c-1.6-0.4-3.3-0.1-5-0.1c-106.8,0-213.6,0-320.5,0
		c-6.7,0-6.7,0-6.7,6.8c0,156,0,312,0,467.9c0,2.8-0.2,5.7-0.7,8.4c-1.2,7.2-6.8,11.8-13.9,11.8c-6.8,0-12.4-4.5-13.9-11.3
		c-0.5-2.3-0.7-4.6-0.7-6.9C2.1,344.6,2.1,182.3,2,20C2,11,5.2,4.6,13.7,1.3c123.3,0,246.7,0,370,0c8.5,3.4,11.7,9.8,11.7,18.8
		c-0.1,162.3-0.1,324.5-0.1,486.8c0,2.5-0.2,5-0.8,7.4c-1.4,5.6-4.8,9.3-10.7,10.5c-7.8,1.6-13.1-1.9-17-8.7c-1.6,1.1-3,1.9-4.3,2.9
		c-16.7,12.1-33.3,24.3-50,36.4c-28.8,20.9-57.7,41.7-86.5,62.7c-4,2.9-7.6,6.2-11.3,9.3C214.4,627.3,214.1,627.3,213.7,627.3z
		 M240.8,380.7c2.9,0,5.2,0,7.5,0c8,0,8,0,10.6,7.9c0.7,2,1.6,4.1,2.8,5.9c5.3,8.3,14.1,8.4,18.8,0c7.1-12.9,6.9-26.2-0.3-39
		c-4-7.1-11.1-7.7-16.5-1.6c-2.1,2.4-4.1,5.5-4.7,8.6c-1,4.9-3.3,6.2-7.9,5.7c-3.4-0.4-6.8-0.1-10.3-0.1
		C240.8,372.6,240.8,376.2,240.8,380.7z"/>
</g>
</svg>
