<?xml version="1.0" encoding="utf-8"?>
<!-- Generator: Adobe Illustrator 21.0.0, SVG Export Plug-In . SVG Version: 6.00 Build 0)  -->
<svg version="1.1" id="Слой_1" xmlns="http://www.w3.org/2000/svg" xmlns:xlink="http://www.w3.org/1999/xlink" x="0px" y="0px"
	 viewBox="0 0 517.2 428.2" style="enable-background:new 0 0 517.2 428.2;" xml:space="preserve">
<g>
	<path d="M517.2,0c0,15.9,0,31.7,0,48c-31.1,0-62,0-93,0c0,31.5,0,62.7,0,94.3c-31.5,0-62.8,0-94.5,0c0,32.1,0,63.7,0,95.7
		c-31.5,0-62.7,0-94.3,0c0,31.9,0,63.4,0,95.3c-31.6,0-62.9,0-94.5,0c0,32.1,0,63.9,0,96.1c-47.1,0-93.9,0-140.7,0
		c0-16.1,0-32.2,0-48.3c30,0,60-0.1,90-0.1c1.3,0,2.5,0,4.1,0c0-32.1,0-63.8,0-95.9c31.3,0,62.2,0,93.5,0c0-32.3,0-64.2,0-96.4
		c31.7,0,63.1,0,94.8,0c0-31.6,0-62.9,0-94.6c31.6,0,62.8,0,94.4,0c0-31.6,0-62.9,0-94.1C423.8,0,470.5,0,517.2,0z"/>
	<path d="M329.9,366c0.8-1,1.5-2.1,2.4-3c25.2-25.3,50.5-50.7,75.8-76c4.3-4.4,9.2-7.6,15.7-7.4c7,0.2,12.1,3.5,15.5,9.4
		c3.3,5.8,3.1,11.8-0.4,17.6c-1.3,2.2-3.1,4.1-4.9,5.9c-25.6,25.7-51.3,51.3-76.9,76.9c-0.7,0.7-1.9,1-2.9,1.5
		c0.3,0.4,0.6,0.9,1,1.3c1,0,2.1,0,3.1,0c12.8,0,25.6-0.1,38.5,0c13.1,0.1,21,11.5,16.6,23.9c-2.4,6.8-8.2,11.3-15.6,11.3
		c-28.3,0.1-56.6,0.2-85,0c-11.6-0.1-19.2-8.5-19.3-20.6c-0.1-23.5,0-46.9,0-70.4c0-4.4-0.1-8.7,0.1-13.1
		c0.3-9.9,7.4-16.7,17.3-16.8c10.2-0.1,17.8,6.7,18,16.6c0.3,13,0.1,26,0.1,39.1c0,1.1,0,2.1,0,3.2
		C329.3,365.6,329.6,365.8,329.9,366z"/>
</g>
</svg>
