<?xml version="1.0" encoding="utf-8"?>
<!-- Generator: Adobe Illustrator 21.0.0, SVG Export Plug-In . SVG Version: 6.00 Build 0)  -->
<svg version="1.1" id="Слой_1" xmlns="http://www.w3.org/2000/svg" xmlns:xlink="http://www.w3.org/1999/xlink" x="0px" y="0px"
	 viewBox="0 0 452.7 425.9" style="enable-background:new 0 0 452.7 425.9;" xml:space="preserve">
<g>
	<g>
		<path d="M0.9,198.2c0.8-0.5,1.7-1,2.4-1.6C76.4,131.9,149.5,67.1,222.7,2.4c1.3-1.1,3.2-1.6,4.8-2.4c0.2,0,0.4,0,0.6,0
			c4.3,4,8.6,8,13,11.9C310.7,73.3,380.3,134.6,449.8,196c0.9,0.8,1.7,1.6,2.8,2.6c-2.4,2.8-4.8,5.5-7.2,8.2
			c-4.8,5.5-9.7,10.9-14.5,16.4c-1.8,2.1-3.4,1.9-5.4,0.2c-16.9-15-33.8-29.9-50.7-44.9C326,135.2,277.2,91.9,228.4,48.6
			c-0.6-0.5-1.2-0.9-2-1.5c-67.2,59.3-134.4,118.6-201.8,178c-4-4.5-7.9-8.9-11.7-13.2c-3.9-4.4-7.9-8.7-11.9-13.1
			C0.9,198.6,0.9,198.4,0.9,198.2z"/>
		<path d="M176.6,425.9c-1.5,0-2.6,0-3.6,0c-31.3,0-62.5,0-93.8,0c-7.7,0-11.2-3.5-11.2-11.2c0-65.1,0-130.1,0-195.2
			c0-1.9,0.5-3.3,2-4.6c51.2-45.3,102.5-90.7,153.6-136.1c2.1-1.9,3.4-2,5.6,0C280.5,124,331.7,169.2,383,214.3
			c1.8,1.6,2.5,3.1,2.5,5.5c-0.1,64.7-0.1,129.3-0.1,194c0,1.4-0.1,2.8-0.4,4.1c-2,7.3-2.9,7.9-10.4,7.9c-31.5,0-63.1,0-94.6,0
			c-1.2,0-2.3,0-3.9,0c0-1.4,0-2.5,0-3.7c0-27.2,0-54.4,0-81.6c0-8.4-3.4-11.7-11.9-11.7c-25.4,0-50.9,0-76.3,0
			c-7.6,0-11.2,3.6-11.3,11.2c0,27.3,0,54.6,0,81.9C176.6,423.1,176.6,424.3,176.6,425.9z"/>
	</g>
</g>
</svg>
