<?xml version="1.0" encoding="utf-8"?>
<!-- Generator: Adobe Illustrator 21.0.0, SVG Export Plug-In . SVG Version: 6.00 Build 0)  -->
<svg version="1.1" id="Слой_1" xmlns="http://www.w3.org/2000/svg" xmlns:xlink="http://www.w3.org/1999/xlink" x="0px" y="0px"
	 viewBox="0 0 347 347.3" style="enable-background:new 0 0 347 347.3;" xml:space="preserve">
<g>
	<g>
		<path d="M239.7,346c-44.4,0-88.8,0-133.2,0c-6.1,0.1-9.3,0.3-13.8,0C47.9,343.4,14,312.8,5,269.4c-1.8-8.9-2.7-18.1-4-27.1
			c0-46.1,0-92.3,0-138.4C1.6,99.9,2.4,96,2.6,92c2.6-44.6,29-79.7,72.2-89.1c9.2-2,17.5-3,29.9-2.9c46.1,0,146.1-0.2,150.1,0
			c44.1,2.6,77,31.3,87.3,74.3c2.4,10.2,3.2,20.8,4.8,31.2c0,44.4,0,88.8,0,133.2c-0.6,5.1-1.4,10.2-1.7,15.3
			c-2.5,43.9-29.7,76.9-72.5,87.1C262,343.7,253,345.3,239.7,346z M174.1,313.3C174.1,313.3,174.1,313.3,174.1,313.3
			c24.5,0,49,0.7,73.5-0.1c41.4-1.4,65.7-25,66.5-66.2c1-49.3,1-98.6,0-147.8c-0.8-41-24.7-65.3-65.5-66.2
			c-49.2-1.1-98.5-1.1-147.8-0.1c-42.4,0.9-66,24.4-66.9,66.5c-1.1,49.2-1,98.5,0,147.8c0.9,41,25,64.5,65.8,65.9
			C124.5,314,149.3,313.3,174.1,313.3z"/>
		<path d="M262.7,173.3c-0.2,49.5-39.8,88.7-89.2,88.4c-49.3-0.4-88.2-39.5-88.2-88.6c0-49.6,39.3-88.9,88.8-88.8
			C223.6,84.4,262.8,123.8,262.7,173.3z M174.4,115.7c-32.3-0.1-57.7,25-57.8,57.1c-0.1,31.8,24.9,57.3,56.4,57.6
			c32.3,0.3,58.1-24.8,58.2-56.6C231.5,141.4,206.4,115.8,174.4,115.7z"/>
		<path d="M286.9,80.5c0.1,11.6-9,21-20.4,21.2c-11.2,0.1-21-9.5-21.2-20.7c-0.2-11.3,9.2-20.7,20.7-20.9
			C277.9,60,286.8,68.7,286.9,80.5z"/>
	</g>
</g>
</svg>
