<?xml version="1.0" encoding="utf-8"?>
<!-- Generator: Adobe Illustrator 21.0.0, SVG Export Plug-In . SVG Version: 6.00 Build 0)  -->
<svg version="1.1" id="Слой_1" xmlns="http://www.w3.org/2000/svg" xmlns:xlink="http://www.w3.org/1999/xlink" x="0px" y="0px"
	 viewBox="0 0 403.8 511.9" style="enable-background:new 0 0 403.8 511.9;" xml:space="preserve">
<g>
	<path d="M204.8,511.9c-0.6-0.8-1-1.6-1.5-2.4c-2.2-3.8-4.4-7.6-6.7-11.4c-12-20.3-23.9-40.6-35.9-60.9
		c-20.4-34.7-40.9-69.3-61.3-104c-5.8-9.9-11.7-19.8-17.5-29.8c-2-3.3-4-6.7-5.9-10c-4.5-8-8.3-16.3-11.2-25
		c-2.4-7-4.2-14.2-5.4-21.5c-0.6-3.6-1.1-7.2-1.4-10.8c-0.6-5.7-0.7-11.5-0.6-17.3c0-0.5,0-1,0-1.4c0-0.1-0.1-0.2-0.2-0.4
		c-0.2,0-0.5-0.1-0.7-0.1c-0.5,0-1,0-1.4,0c-17.1,0-34.3,0-51.4,0c-0.5,0-1,0-1.7,0c0.1-0.5,0.4-0.7,0.6-1c4-4.3,8-8.7,12-13
		c23.9-25.8,47.9-51.6,71.8-77.4c1.5-1.6,1.3-1.1,1.3-3.3c0-28,0-56,0-83.9c0-0.7,0-1.3,0-2c0.3-0.1,0.6-0.2,0.9-0.2
		c0.4,0,0.9,0,1.3,0c13.5,0,27.1,0,40.6,0c2.1,0,4.2,0.1,6.3,0.1c0.2,0,0.5,0.1,0.7,0.1c0.2,0.6,0.1,1.2,0.1,1.7
		c0,7.8,0,15.6,0,23.5c0,2.2,0,4.4,0,6.6c0,0.5,0,1,0,1.6c0.3-0.1,0.5-0.1,0.7-0.2c0.3-0.3,0.6-0.6,0.9-0.9
		c15.4-16.6,30.9-33.3,46.3-49.9c5.5-5.9,10.9-11.8,16.4-17.6c0.3-0.3,0.6-0.6,0.9-0.9c0.2,0.1,0.3,0.1,0.4,0.2
		c66.8,72,133.6,144,200.4,215.9c0.1,0.1,0.1,0.3,0.2,0.5c-0.3,0.1-0.5,0.1-0.7,0.1c-0.4,0-0.9,0-1.3,0c-17.5,0-34.9,0-52.4,0
		c-0.7,0-1.3,0-2.1,0c-0.1,0.3-0.2,0.6-0.2,0.9c0,1.3,0.1,2.7,0.1,4c0,3.2,0,6.4-0.1,9.6c-0.1,3-0.5,6-0.7,9
		c-0.6,6.3-1.8,12.5-3.3,18.7c-3.7,14.8-9.6,28.7-17.6,41.7c-1.9,3.1-3.7,6.3-5.5,9.4c-8.4,14.7-16.8,29.5-25.2,44.3
		c-11.4,20-22.9,40.1-34.3,60.1c-10.3,18.1-20.7,36.3-31,54.4c-7.9,13.8-15.8,27.7-23.7,41.5C205.5,511,205.3,511.5,204.8,511.9z
		 M202.3,122c-1.5,0-3.8,0-6,0.2c-4.2,0.3-8.4,0.8-12.5,1.6c-8,1.5-15.8,4-23.2,7.4c-28.3,12.9-49.4,38-57,68.2
		c-1.3,5.1-2.1,10.2-2.7,15.4c-0.3,3-0.4,5.9-0.4,8.9c0,5.1,0.3,10.3,1,15.4c0.9,6.1,2.3,12.1,4.2,17.9c2.1,6.1,4.6,12.1,7.9,17.7
		c10.6,17.5,25,30.8,43.4,39.8c12.3,6.1,25.4,9.4,39.1,10.1c6.3,0.3,12.7,0.1,19-0.7c5-0.7,10-1.7,14.9-3.1
		c18.8-5.5,34.8-15.4,47.9-30c16.4-18.3,25-39.7,26.3-64.2c0.3-6.1,0-12.3-0.9-18.4c-0.8-5.7-2-11.2-3.7-16.7
		c-2.1-6.5-4.6-12.8-8.1-18.7C273.3,141.9,240.2,122,202.3,122z"/>
	<path d="M253.8,224.5c0,22-14.3,41.5-35,48.4c-3.3,1.1-6.7,1.8-10.2,2.2c-3.2,0.4-6.4,0.4-9.6,0.2c-7.7-0.6-15-2.8-21.6-6.7
		c-8.2-4.8-14.5-11.4-19.1-19.7c-1.6-3-3.3-6-4.4-9.2c-1.5-4.2-2.5-8.5-2.8-12.9c-0.1-1.6-0.2-3.2-0.2-4.7
		c0.1-10.2,2.8-19.5,8.5-27.9c7.6-11.3,18.2-18.5,31.5-21.6c4-0.9,8.1-1.3,12.3-1.2c20.2,0.6,36,12.4,43.6,26.9
		c1.6,3.1,3.2,6.1,4.4,9.4c1.2,3.5,2.1,7.1,2.5,10.8C253.6,220.4,253.7,222.4,253.8,224.5z"/>
</g>
</svg>
