<?xml version="1.0" encoding="utf-8"?>
<!-- Generator: Adobe Illustrator 21.0.0, SVG Export Plug-In . SVG Version: 6.00 Build 0)  -->
<svg version="1.1" id="Слой_1" xmlns="http://www.w3.org/2000/svg" xmlns:xlink="http://www.w3.org/1999/xlink" x="0px" y="0px"
	 viewBox="0 0 188.1 106.4" style="enable-background:new 0 0 188.1 106.4;" xml:space="preserve">
<g>
	<path d="M0.3,106.4V0.4h32l19.2,72.3l19-72.3h32.1v106H82.8V23l-21,83.4H41.2L20.2,23v83.4H0.3z"/>
	<path d="M188.1,87.5v18.9h-71.2c0.8-7.1,3.1-13.9,6.9-20.3s11.5-14.9,22.8-25.4c9.2-8.5,14.8-14.3,16.8-17.4
		c2.8-4.2,4.2-8.3,4.2-12.4c0-4.5-1.2-8-3.7-10.4s-5.8-3.7-10.1-3.7c-4.2,0-7.6,1.3-10.1,3.8c-2.5,2.6-4,6.8-4.3,12.7l-20.2-2
		c1.2-11.2,5-19.2,11.4-24.1S144.9,0,154.4,0c10.5,0,18.7,2.8,24.7,8.5c6,5.6,9,12.7,9,21c0,4.8-0.9,9.3-2.6,13.6s-4.4,8.8-8.1,13.6
		c-2.5,3.1-6.9,7.6-13.3,13.5s-10.5,9.8-12.2,11.7s-3.1,3.8-4.2,5.6L188.1,87.5L188.1,87.5z"/>
</g>
</svg>
