<?xml version="1.0" encoding="utf-8"?>
<!-- Generator: Adobe Illustrator 21.0.0, SVG Export Plug-In . SVG Version: 6.00 Build 0)  -->
<svg version="1.1" id="Слой_1" xmlns="http://www.w3.org/2000/svg" xmlns:xlink="http://www.w3.org/1999/xlink" x="0px" y="0px"
	 viewBox="0 0 216.8 257.9" style="enable-background:new 0 0 216.8 257.9;" xml:space="preserve">
<g>
	<path d="M0,194.9c33.7-23.1,66.6-45.7,100.4-68.9c0,11.2-0.1,21.3,0,31.3c0.1,8.4-2,9,8.6,8.6c32.3-1.2,57.7-16,77.3-40.9
		c8-10.1,14.2-21.5,21.2-32.3c2.4,10.9,2.6,22.5,1.3,34.1c-5.7,48.1-34.8,76-78.8,90.8c-8.3,2.8-17,4.6-25.6,6.6c-3,0.7-4.1,2-4,5
		c0.2,9.3,0.1,18.5,0.1,28.9C66.6,236.9,33.7,216.2,0,194.9z"/>
	<path d="M116.3,0c33.9,21.4,67,42.2,100.5,63.3c-33.5,23-66.4,45.6-100.2,68.8c0-13.5,0-26.2,0-39.5c-24.7-1.7-45.9,5.6-64.9,19.7
		C32.9,126.3,20.2,145,9.2,165.7c-0.5-3.5-1.1-7-1.4-10.5c-4.4-50.4,20.1-90.9,67.1-110c11.9-4.8,24.7-7.7,37.2-11.1
		c3.2-0.9,4.4-2,4.3-5.3C116.2,19.6,116.3,10.3,116.3,0z"/>
</g>
</svg>
